<svg xmlns="http://www.w3.org/2000/svg" xmlns:xlink="http://www.w3.org/1999/xlink" width="121" height="142" viewBox="0 0 121 142">
  <defs>
    <clipPath id="clip-path">
      <rect id="사각형_519" data-name="사각형 519" width="121" height="142" fill="none"/>
    </clipPath>
  </defs>
  <g id="입구" opacity="0.6">
    <g id="그룹_1550" data-name="그룹 1550">
      <g id="그룹_1549" data-name="그룹 1549" clip-path="url(#clip-path)">
        <path id="패스_6356" data-name="패스 6356" d="M26.712,84.847c-.249-.483-.5-.963-.746-1.449q-.743-1.485-1.446-2.985c-.069-.15-.135-.3-.2-.449q-.581-1.256-1.135-2.52c-.137-.312-.269-.626-.4-.94q-.446-1.042-.871-2.091c-.135-.33-.269-.661-.4-.992q-.446-1.128-.866-2.261c-.1-.256-.2-.511-.289-.768q-.553-1.515-1.061-3.036c-.075-.225-.143-.451-.217-.676-.26-.8-.515-1.6-.755-2.4-.113-.371-.219-.743-.327-1.114q-.289-1-.561-1.992c-.108-.4-.213-.805-.317-1.207q-.247-.97-.479-1.938c-.093-.394-.187-.788-.275-1.182-.155-.688-.3-1.375-.438-2.061-.067-.337-.141-.676-.2-1.012-.189-.989-.364-1.975-.521-2.959,0-.025-.009-.049-.013-.074-.159-1-.294-2.005-.417-3-.038-.3-.067-.606-.1-.91-.078-.7-.151-1.4-.211-2.09-.03-.347-.056-.693-.082-1.038q-.075-1.012-.122-2.016c-.015-.322-.034-.645-.045-.965-.034-.956-.055-1.909-.053-2.854,0-1,.029-1.974.073-2.936.012-.271.034-.535.05-.8.038-.661.081-1.316.14-1.96.033-.373.074-.737.113-1.1.059-.545.124-1.086.195-1.619.054-.392.113-.778.175-1.162q.117-.737.251-1.455.119-.645.256-1.274.139-.648.292-1.28c.119-.494.248-.981.381-1.462.1-.376.211-.749.324-1.117.176-.577.365-1.14.561-1.695.123-.349.241-.7.372-1.045.065-.171.134-.338.2-.507q.346-.866.726-1.7c.049-.107.094-.218.145-.323a33.5,33.5,0,0,1,2.148-3.894c.078-.123.163-.238.243-.359q.444-.67.916-1.308c.128-.171.257-.339.387-.507q.449-.577.92-1.125c.119-.139.236-.281.357-.417.432-.483.875-.95,1.332-1.395.064-.062.132-.118.2-.18q.6-.571,1.229-1.1c.152-.128.306-.25.461-.374q.538-.431,1.094-.83c.154-.11.305-.223.462-.329.517-.354,1.043-.695,1.584-1.01L15.584,11.83c-.542.314-1.068.656-1.586,1.01-.155.106-.306.218-.46.328q-.557.4-1.1.83c-.155.124-.309.247-.46.375q-.63.527-1.23,1.1c-.063.061-.131.118-.2.18-.457.445-.9.913-1.331,1.395-.122.137-.238.278-.358.418q-.471.547-.919,1.126c-.132.167-.26.334-.387.506q-.471.636-.917,1.308c-.08.12-.164.237-.244.359-.023.036-.048.07-.07.106q-.548.859-1.052,1.77v0c-.335.609-.659,1.237-.965,1.882l-.057.132c-.051.107-.1.219-.147.327-.254.551-.494,1.117-.725,1.693-.068.169-.136.336-.2.507-.048.128-.1.25-.15.379-.08.216-.144.449-.222.668-.2.555-.385,1.117-.562,1.693-.046.154-.1.3-.15.452-.063.216-.112.448-.174.667q-.2.721-.382,1.463c-.048.2-.107.394-.156.6-.05.221-.088.454-.136.678-.089.422-.176.847-.256,1.279-.042.221-.094.433-.133.657-.045.259-.076.531-.118.794-.061.385-.12.771-.175,1.164-.027.2-.062.392-.087.593-.043.335-.069.685-.107,1.025-.038.366-.08.731-.112,1.1-.015.151-.034.294-.047.445-.039.5-.063,1.006-.093,1.512-.015.271-.037.536-.05.81,0,.066-.01.131-.011.2Q.007,44.63,0,45.941v.154q0,1.2.034,2.418c0,.145.015.29.019.435.011.322.03.647.045.971.02.39.03.777.055,1.168.017.279.046.561.066.841.027.347.053.694.083,1.041.021.237.034.473.056.71.045.458.1.92.154,1.379.034.3.063.606.1.91.013.11.023.22.037.329q.167,1.328.38,2.665v.007c0,.031.01.063.015.094q.208,1.3.452,2.614c.021.108.045.217.066.324.064.34.138.681.207,1.021.1.475.185.949.289,1.425.045.209.1.419.146.628q.136.593.278,1.186c.077.333.149.667.232,1,.076.311.166.624.246.935.1.4.209.806.317,1.21.063.23.118.46.182.69.119.434.254.868.38,1.3.108.371.213.741.324,1.112.042.137.078.273.119.41.2.667.423,1.331.641,2,.073.222.14.444.214.666.013.038.024.077.037.115q.455,1.357.945,2.71c.025.071.053.142.08.212.093.256.192.511.287.767.2.55.407,1.1.621,1.65.079.2.166.407.246.611q.2.5.4,1c.129.32.254.642.387.96.157.377.321.751.481,1.127.136.314.268.628.4.941.069.159.133.317.2.475.3.687.62,1.371.935,2.054.068.146.132.292.2.437l.04.085q.645,1.377,1.325,2.742c.025.053.054.1.08.158.246.493.5.98.757,1.47s.507,1,.77,1.5c.031.057.064.113.094.171q.9,1.675,1.836,3.326l14.152-8.225q-.943-1.649-1.835-3.326c-.3-.559-.584-1.124-.875-1.686" fill="#165417"/>
        <path id="패스_6357" data-name="패스 6357" d="M91.332,142,15.27,98.083l14.153-8.225,76.062,43.916Z" fill="#267b25"/>
        <path id="패스_6358" data-name="패스 6358" d="M120.967,97.15c-.005-.153-.017-.306-.022-.459-.012-.324-.03-.65-.045-.974-.019-.384-.029-.765-.054-1.151-.019-.293-.048-.59-.07-.885-.026-.344-.052-.689-.082-1.034-.02-.226-.031-.452-.054-.679-.046-.492-.109-.987-.165-1.481-.032-.283-.059-.566-.094-.85-.011-.1-.02-.19-.032-.285q-.17-1.337-.382-2.683l-.011-.06c-.019-.128-.045-.257-.066-.386-.122-.75-.248-1.5-.39-2.253-.024-.135-.056-.27-.082-.406-.067-.356-.145-.715-.218-1.073-.089-.436-.17-.871-.265-1.307-.053-.243-.114-.486-.17-.729-.089-.391-.18-.781-.274-1.172-.071-.3-.135-.6-.209-.9-.088-.36-.191-.721-.283-1.081-.1-.393-.2-.784-.31-1.177-.051-.192-.1-.384-.151-.575-.144-.515-.3-1.03-.452-1.544-.1-.332-.189-.665-.29-1-.029-.093-.053-.188-.081-.281q-.426-1.383-.887-2.762l-.012-.034c-.028-.084-.06-.169-.088-.254-.275-.812-.555-1.624-.848-2.434-.046-.129-.1-.257-.145-.386-.113-.307-.231-.614-.346-.921-.164-.437-.322-.875-.491-1.309-.109-.28-.227-.557-.337-.836q-.2-.509-.409-1.015c-.1-.248-.2-.5-.3-.743-.207-.5-.424-.99-.637-1.485-.112-.26-.221-.521-.335-.781-.04-.093-.078-.187-.119-.28q-.572-1.294-1.175-2.58l-.053-.11c-.115-.246-.239-.489-.356-.735-.315-.659-.629-1.319-.955-1.974-.051-.1-.106-.206-.16-.309-.268-.535-.548-1.065-.824-1.6-.225-.432-.443-.869-.671-1.3-.042-.079-.09-.156-.133-.234q-1.115-2.077-2.306-4.112c-.067-.115-.127-.233-.2-.347-.2-.344-.417-.683-.623-1.025-.334-.557-.669-1.114-1.011-1.665-.305-.491-.618-.977-.929-1.464-.347-.543-.7-1.085-1.05-1.624-.119-.178-.231-.36-.348-.537s-.237-.33-.35-.5c-.987-1.461-1.992-2.907-3.032-4.319v0l-.03-.039q-1.1-1.493-2.244-2.945c-.033-.044-.066-.089-.1-.133-.558-.709-1.127-1.406-1.7-2.1-.115-.14-.227-.283-.341-.423l-.02-.023q-1.02-1.226-2.064-2.416c-.034-.04-.071-.078-.105-.117-.212-.24-.429-.473-.641-.71-.443-.494-.884-.992-1.332-1.476-.084-.091-.172-.178-.256-.269-.3-.324-.61-.64-.916-.959-.337-.353-.672-.714-1.011-1.061-.128-.13-.259-.252-.387-.381-.331-.334-.667-.662-1-.99-.288-.283-.573-.575-.865-.854-.167-.16-.336-.31-.5-.468-.361-.341-.725-.678-1.089-1.013-.252-.233-.5-.475-.756-.7-.2-.18-.406-.35-.608-.529q-.547-.485-1.1-.96c-.224-.193-.445-.394-.67-.583-.242-.206-.491-.4-.735-.6q-.539-.446-1.082-.884c-.187-.15-.372-.308-.559-.457-.307-.242-.618-.47-.929-.707-.334-.258-.67-.517-1.007-.768-.137-.1-.272-.212-.41-.314-.415-.305-.835-.594-1.253-.891-.285-.2-.566-.408-.849-.6-.074-.051-.148-.106-.222-.158q-1.128-.773-2.27-1.5a.128.128,0,0,0-.019-.013c-.054-.034-.109-.065-.165-.1-.688-.436-1.381-.863-2.076-1.272l-.524-.306q-.852-.491-1.7-.95c-.217-.116-.43-.22-.644-.333q-.435-.229-.869-.45c-.226-.114-.452-.239-.677-.35-.36-.179-.717-.337-1.075-.507-.257-.12-.514-.247-.771-.363-.1-.047-.212-.1-.316-.149q-1.075-.482-2.138-.907-1.084-.435-2.156-.811c-.093-.032-.185-.058-.277-.09-.258-.089-.515-.168-.772-.252-.362-.119-.729-.248-1.09-.357-.181-.054-.357-.1-.537-.148-.316-.091-.63-.177-.944-.26-.241-.064-.486-.141-.727-.2s-.5-.109-.753-.168c-.313-.072-.628-.144-.938-.209-.166-.034-.333-.078-.5-.11-.3-.057-.582-.093-.876-.144C49.632.5,49.27.44,48.912.389c-.127-.018-.256-.046-.383-.063-.3-.04-.59-.057-.886-.09-.387-.042-.771-.087-1.152-.117-.113-.009-.228-.027-.339-.034-.26-.018-.513-.014-.77-.026-.456-.021-.91-.041-1.357-.044C43.9.012,43.768,0,43.643,0c-.5,0-.99.017-1.478.041-.06,0-.121.01-.183.013C41.61.075,41.24.1,40.875.132c-.233.021-.461.055-.692.081-.174.02-.347.039-.52.062-.631.083-1.255.18-1.867.3l-.057.013c-.169.034-.331.081-.5.118-.508.113-1.015.232-1.51.372-.242.068-.476.15-.715.225-.317.1-.641.189-.953.3-.078.028-.154.065-.232.094-.48.176-.947.374-1.413.575-.226.1-.46.186-.684.291-.681.319-1.347.662-2,1.039L15.584,11.831c.649-.378,1.316-.721,2-1.04.224-.1.458-.193.684-.291.467-.2.933-.4,1.413-.574.39-.143.786-.269,1.185-.394.239-.075.474-.158.716-.226.494-.14,1-.258,1.509-.371.168-.037.33-.084.5-.118.631-.129,1.273-.231,1.924-.317.172-.023.346-.041.52-.061.593-.068,1.192-.125,1.8-.159.062,0,.124-.01.184-.013.611-.03,1.235-.033,1.86-.029.45,0,.9.024,1.36.045.369.017.735.031,1.107.06s.768.075,1.153.117c.421.046.842.091,1.268.154.357.051.72.115,1.08.178.455.078.913.16,1.374.255.31.064.626.137.938.209q.736.17,1.481.368c.313.084.628.17.943.26.539.157,1.082.326,1.629.505.256.084.512.164.77.252.806.278,1.616.574,2.432.9h0c.811.325,1.632.682,2.455,1.056.255.116.513.242.769.362.582.275,1.167.559,1.755.859q.431.22.867.45c.777.41,1.555.829,2.341,1.283.876.505,1.745,1.035,2.61,1.582.051.032.1.062.156.1.843.536,1.681,1.1,2.513,1.671.283.2.564.4.846.6.557.4,1.115.794,1.667,1.206.336.251.671.51,1.005.767q.749.575,1.49,1.167.542.435,1.08.883.7.583,1.4,1.185c.369.316.735.637,1.1.96q.685.607,1.363,1.232c.364.336.73.674,1.092,1.016q.687.651,1.364,1.318c.335.33.672.659,1.005.994.469.473.932.955,1.394,1.439.306.319.614.637.918.961.534.573,1.061,1.157,1.588,1.744.212.238.43.47.641.71q1.11,1.261,2.191,2.558c.111.134.218.272.327.407.61.74,1.217,1.487,1.81,2.245q1.152,1.467,2.267,2.975l.008.012c1.041,1.412,2.046,2.859,3.033,4.32.234.345.468.689.7,1.036.354.537.7,1.08,1.05,1.624.312.486.623.972.929,1.463.341.552.677,1.109,1.011,1.666.274.456.55.912.817,1.372q1.191,2.038,2.308,4.114c.271.506.534,1.017.8,1.526.278.534.558,1.066.827,1.6.38.754.748,1.513,1.111,2.273.117.25.242.5.361.747q.693,1.478,1.344,2.966c.115.262.225.525.337.787Q98.542,69.888,99,71q.206.508.41,1.015.425,1.072.827,2.146c.115.307.234.615.347.922q.514,1.407.992,2.82c.028.084.06.169.088.254.343,1.024.668,2.05.981,3.077.1.334.194.668.292,1,.206.7.408,1.41.6,2.114q.158.592.309,1.184.256.987.492,1.972c.093.392.186.783.274,1.175.154.68.3,1.359.435,2.036.073.357.15.716.219,1.073q.255,1.327.469,2.648c.022.133.049.266.068.4.162,1.011.3,2.019.425,3.023.034.286.062.571.1.858.081.72.156,1.439.218,2.155.03.346.056.692.082,1.037q.077,1.018.123,2.028c.016.327.034.655.046.981.035.96.056,1.917.054,2.866,0,.991-.03,1.961-.073,2.917-.012.286-.035.564-.052.847-.038.65-.08,1.294-.137,1.927-.032.364-.073.721-.111,1.08-.059.545-.122,1.086-.195,1.619-.054.4-.113.787-.174,1.177-.078.487-.161.968-.25,1.444q-.12.645-.254,1.275-.14.649-.293,1.283c-.116.478-.238.95-.367,1.415-.1.377-.211.75-.323,1.119-.18.592-.375,1.17-.575,1.74-.12.342-.235.691-.362,1.024-.067.176-.138.348-.207.522q-.337.845-.706,1.655c-.054.122-.106.246-.163.365q-.455.967-.954,1.881c-.021.04-.041.083-.063.124q-.532.965-1.115,1.869c-.078.123-.162.238-.24.357-.3.449-.6.886-.915,1.31-.126.17-.254.337-.382.5q-.449.58-.918,1.127c-.119.139-.235.28-.354.416-.431.483-.872.95-1.327,1.395-.063.062-.132.119-.2.181q-.6.571-1.223,1.1c-.151.128-.3.25-.458.373q-.536.432-1.089.832c-.154.11-.3.223-.459.329-.516.354-1.04.7-1.577,1.012l14.152-8.226c.538-.315,1.062-.657,1.577-1.012.156-.106.307-.219.458-.329q.556-.4,1.091-.831c.154-.124.307-.246.459-.374.415-.351.823-.716,1.22-1.1.066-.062.134-.119.2-.183.456-.445.9-.912,1.325-1.394.121-.137.238-.279.357-.418q.468-.547.915-1.124c.13-.168.258-.335.385-.506q.468-.636.911-1.306c.08-.122.165-.237.244-.36.024-.036.048-.07.071-.106q.544-.854,1.043-1.762c.021-.04.041-.083.062-.124.306-.562.6-1.136.886-1.727.022-.05.044-.1.068-.154.056-.119.107-.244.163-.364q.369-.81.706-1.656c.069-.174.14-.345.207-.521.048-.128.1-.249.149-.377.078-.209.14-.436.214-.648.2-.57.395-1.148.575-1.741.048-.157.107-.3.153-.462.062-.213.11-.441.171-.658.129-.465.251-.935.366-1.413.049-.206.11-.4.158-.609s.087-.452.136-.675q.134-.63.255-1.275c.042-.222.092-.434.132-.658.044-.257.076-.525.117-.785.061-.389.12-.78.175-1.178.028-.2.064-.4.09-.6.042-.334.069-.681.1-1.019.038-.358.078-.715.11-1.078.014-.15.034-.293.046-.444.04-.486.062-.988.091-1.483.017-.284.04-.561.053-.848,0-.07.009-.138.013-.208.034-.839.055-1.691.058-2.556,0-.051,0-.1,0-.152q0-1.2-.032-2.41" fill="#2a8929"/>
      </g>
    </g>
  </g>
</svg>
