<svg id="굴진블록" xmlns="http://www.w3.org/2000/svg" xmlns:xlink="http://www.w3.org/1999/xlink" width="141" height="162" viewBox="0 0 141 162">
  <defs>
    <clipPath id="clip-path">
      <rect id="사각형_515" data-name="사각형 515" width="141" height="162" fill="none"/>
    </clipPath>
  </defs>
  <g id="그룹_1541" data-name="그룹 1541">
    <g id="그룹_1540" data-name="그룹 1540" clip-path="url(#clip-path)">
      <path id="패스_6330" data-name="패스 6330" d="M62.156,84.554c-.251-.485-.509-.969-.753-1.456q-.742-1.477-1.443-2.967c-.068-.144-.132-.289-.2-.432q-.586-1.259-1.142-2.525c-.137-.311-.268-.623-.4-.935q-.446-1.04-.872-2.083c-.135-.33-.269-.66-.4-.992q-.446-1.123-.866-2.25c-.1-.255-.195-.51-.289-.766q-.553-1.51-1.061-3.025c-.074-.222-.142-.444-.215-.666q-.393-1.2-.759-2.393c-.113-.37-.218-.74-.326-1.111-.193-.661-.382-1.323-.562-1.984q-.163-.6-.318-1.2-.25-.967-.479-1.931c-.093-.393-.187-.787-.275-1.179-.155-.683-.3-1.367-.437-2.049-.068-.338-.142-.675-.206-1.013-.191-.992-.369-1.982-.526-2.97,0-.017-.006-.034-.008-.051-.159-1-.294-2-.418-2.99-.037-.305-.067-.608-.1-.913q-.118-1.042-.209-2.076c-.03-.346-.057-.691-.083-1.038q-.074-1.006-.122-2c-.015-.322-.034-.645-.045-.967-.034-.952-.056-1.9-.053-2.842,0-.994.029-1.966.073-2.925.012-.272.034-.536.05-.807.038-.657.082-1.31.14-1.95.033-.371.074-.734.114-1.1.059-.543.123-1.083.195-1.613.054-.391.114-.778.175-1.162q.116-.731.25-1.446.122-.644.257-1.274t.292-1.274c.12-.493.248-.978.381-1.457.1-.375.211-.747.325-1.115.176-.575.367-1.137.563-1.691.124-.346.24-.7.371-1.039.066-.171.135-.338.2-.507q.345-.862.724-1.686c.05-.108.1-.219.147-.326a33.34,33.34,0,0,1,2.15-3.881c.078-.121.162-.235.24-.354q.448-.671.921-1.309c.127-.17.255-.336.385-.5q.449-.578.923-1.124c.12-.138.236-.279.357-.414.432-.481.875-.948,1.334-1.391.064-.061.132-.118.2-.179q.6-.569,1.23-1.095c.152-.127.307-.249.46-.371q.538-.431,1.1-.829c.154-.11.306-.222.461-.327.518-.353,1.044-.693,1.587-1.007L61.316,5.831,56.665,8.522l-7.29,4.218-5.957,3.447L31.41,23.134l-7.29,4.218-4.65,2.691L15.6,32.281c-.542.314-1.068.653-1.586,1.007-.157.106-.309.218-.462.328q-.558.4-1.1.828c-.154.123-.309.245-.46.372q-.629.525-1.23,1.095c-.064.061-.133.117-.2.179-.457.443-.9.909-1.333,1.39-.122.136-.239.278-.359.417q-.472.545-.921,1.12c-.13.167-.259.335-.387.506q-.472.633-.916,1.3c-.08.121-.165.237-.244.36-.024.036-.049.069-.072.105q-.547.856-1.052,1.766l-.007.013q-.5.905-.958,1.862c-.021.043-.039.089-.059.132-.051.108-.1.22-.148.329q-.378.823-.724,1.684c-.068.168-.137.336-.2.507-.049.126-.1.248-.15.375-.08.214-.145.446-.222.664-.2.554-.386,1.115-.563,1.69-.047.153-.1.294-.15.448-.063.216-.114.446-.174.665q-.2.719-.382,1.459c-.049.2-.109.391-.156.6-.05.22-.088.454-.137.677q-.136.629-.256,1.274c-.042.22-.093.431-.133.653-.045.259-.076.53-.119.793-.061.384-.121.771-.174,1.162-.028.2-.063.39-.089.59-.041.334-.068.681-.106,1.02-.039.366-.081.731-.115,1.1-.013.149-.034.291-.046.44-.04.494-.064,1-.093,1.507-.015.271-.037.535-.05.809,0,.067-.009.13-.012.2Q.007,64.975,0,66.282c0,.051,0,.1,0,.153q0,1.2.033,2.411c0,.143.015.288.02.431.012.321.03.643.045.966.019.389.03.777.055,1.168.018.277.046.558.067.837q.038.518.082,1.038c.021.237.034.472.057.709.043.454.1.911.152,1.367.034.3.064.607.1.912.013.111.023.22.037.33q.167,1.324.379,2.655v.006l.009.05q.21,1.322.459,2.651c.02.107.045.214.065.32.064.336.138.672.206,1.009.1.477.187.954.291,1.431.045.208.1.416.146.624.088.391.182.784.275,1.175.079.334.152.668.234,1,.077.309.166.619.245.929.1.4.209.8.318,1.2.062.23.119.461.183.692.12.43.253.862.379,1.292.109.37.213.74.326,1.11.042.138.078.275.121.412.2.661.422,1.321.638,1.981.073.222.141.444.215.666l.038.119q.454,1.349.944,2.7c.026.07.054.14.08.21.092.255.192.508.287.763.205.548.407,1.1.621,1.644.079.2.166.407.247.611.131.33.265.658.4.988s.254.64.387.959c.158.377.325.752.486,1.129.133.31.264.62.4.93.069.158.134.316.2.473.3.687.621,1.373.94,2.056.066.143.13.287.2.43l.036.08q.644,1.366,1.321,2.719c.028.056.058.112.086.168.243.485.5.966.749,1.448.258.5.509,1,.773,1.493.032.061.067.12.1.181q.9,1.677,1.845,3.328L64.87,89.549q-.95-1.651-1.846-3.329c-.3-.552-.581-1.11-.868-1.665" fill="#165417"/>
      <path id="패스_6331" data-name="패스 6331" d="M91.415,162,15.285,118.238,64.87,89.549,141,133.31Z" fill="#267b25"/>
      <path id="패스_6332" data-name="패스 6332" d="M19.7,30.383c.388-.141.784-.267,1.181-.391.241-.075.477-.157.722-.225.494-.139,1-.257,1.507-.369.169-.037.333-.085.5-.119.631-.127,1.274-.229,1.924-.315.174-.023.349-.042.524-.062.592-.068,1.19-.124,1.8-.158.062,0,.124-.009.187-.012.611-.031,1.234-.034,1.859-.029.449,0,.9.023,1.361.045.369.017.736.03,1.109.059s.768.075,1.154.117c.421.047.842.092,1.268.153.359.052.722.116,1.083.178.455.078.912.158,1.373.253.312.065.626.136.94.208q.737.17,1.482.367c.314.083.627.168.943.259.54.155,1.084.325,1.63.5.257.084.514.162.772.251q2.409.829,4.892,1.951c.256.115.515.241.772.361.582.273,1.166.556,1.753.855q.436.221.872.449c.777.408,1.557.827,2.342,1.278L103.232,7.3q-.853-.491-1.7-.948c-.215-.116-.427-.218-.642-.331-.291-.153-.581-.3-.871-.449-.225-.114-.452-.238-.676-.349-.361-.177-.718-.336-1.076-.5-.257-.121-.516-.246-.772-.362-.106-.048-.212-.1-.318-.149q-1.075-.48-2.139-.9h-.005q-1.084-.432-2.153-.808c-.093-.032-.185-.058-.277-.09-.259-.089-.515-.167-.772-.251-.365-.119-.731-.247-1.092-.355-.181-.055-.358-.1-.539-.148-.315-.091-.628-.176-.942-.259-.242-.064-.487-.14-.729-.2s-.5-.109-.754-.167c-.315-.072-.628-.143-.94-.207-.165-.034-.334-.079-.5-.11-.294-.058-.582-.094-.875-.144C85.1.5,84.737.438,84.378.386,84.252.368,84.122.34,84,.324c-.3-.04-.589-.058-.885-.09-.386-.043-.773-.088-1.154-.118-.113-.008-.227-.026-.339-.034-.26-.018-.513-.013-.771-.025-.455-.021-.911-.042-1.36-.045C79.361.011,79.23,0,79.106,0c-.5,0-.991.017-1.48.041-.061,0-.122.009-.183.012C77.071.074,76.7.1,76.333.13c-.232.021-.459.055-.689.081-.175.02-.35.039-.524.062-.63.083-1.255.18-1.868.3-.019,0-.037.01-.056.013-.17.035-.334.082-.5.119-.509.112-1.013.23-1.508.369-.243.068-.479.15-.719.225-.318.1-.64.187-.953.3-.079.028-.154.066-.232.1-.479.174-.947.371-1.412.572-.228.1-.461.186-.685.29-.681.318-1.35.66-2,1.036L15.6,32.282c.649-.376,1.318-.718,2-1.036.223-.1.455-.192.682-.289.466-.2.935-.4,1.415-.574" fill="#2a8929"/>
    </g>
  </g>
</svg>
