<svg xmlns="http://www.w3.org/2000/svg" width="248" height="187" viewBox="0 0 220 187"><defs><style>.a{opacity:0.702;}.b{isolation:isolate;}.c{fill:#793a17;}.d{fill:#864500;}.e{fill:#bc6108;}</style></defs><g class="a" transform="translate(-84.692 -161.864)"><g class="b"><path class="c" d="M201.007,207.488q-.007-1.2-.056-2.365c0-.1-.013-.189-.017-.285-.014-.3-.037-.587-.055-.881-.024-.4-.042-.805-.073-1.2-.014-.171-.037-.333-.052-.5-.033-.362-.071-.717-.111-1.074-.031-.281-.053-.57-.087-.847-.027-.213-.064-.415-.093-.626q-.077-.558-.164-1.1c-.035-.219-.061-.447-.1-.664s-.091-.443-.134-.668c-.076-.408-.156-.812-.242-1.211-.041-.191-.073-.392-.116-.581s-.106-.394-.154-.6q-.169-.7-.358-1.377c-.053-.192-.1-.4-.152-.586-.044-.153-.1-.294-.147-.445-.165-.54-.341-1.067-.525-1.587-.07-.2-.127-.41-.2-.605-.031-.082-.069-.156-.1-.237-.331-.876-.684-1.728-1.068-2.544-.01-.022-.018-.047-.029-.069-.024-.051-.055-.094-.079-.144a31.481,31.481,0,0,0-1.7-3.1c-.035-.055-.061-.12-.1-.175-.016-.024-.035-.045-.05-.07-.507-.792-1.049-1.538-1.612-2.253-.135-.172-.274-.339-.413-.506-.545-.659-1.109-1.291-1.7-1.88-.047-.047-.091-.1-.139-.145a24.393,24.393,0,0,0-1.99-1.727c-.167-.131-.335-.259-.505-.385a23.711,23.711,0,0,0-2.177-1.46L182.58,173.3l-1.851-1.08-3.12-1.82-3.12-1.82-1.851-1.08-3.927-2.291a23.685,23.685,0,0,1,2.177,1.46q.253.188.5.383a24.512,24.512,0,0,1,1.992,1.727c.047.047.09.1.138.145.594.589,1.158,1.221,1.7,1.88.139.168.278.335.413.507.564.715,1.105,1.461,1.611,2.253.051.079.1.165.147.245a31.605,31.605,0,0,1,1.7,3.1c.035.073.074.142.11.215.383.815.736,1.667,1.068,2.543.1.276.2.561.3.843.182.52.359,1.046.524,1.586q.156.508.3,1.03.189.68.358,1.38c.094.386.185.775.269,1.17s.166.806.243,1.215c.082.439.161.883.232,1.333q.087.546.164,1.1c.067.485.126.978.18,1.474.039.356.078.712.111,1.073.051.559.091,1.127.126,1.7.018.294.04.584.054.881.041.87.069,1.75.074,2.65l.067,23.538,17.8,10.384Z"/><path class="d" d="M102.555,288.137l98.518-57.11-17.8-10.384-98.518,57.11Z"/><path class="e" d="M102.59,261.046q.048-.932.118-1.871c.025-.32.048-.639.076-.96.061-.7.135-1.4.216-2.1.027-.235.049-.469.078-.7q.175-1.41.4-2.828c.031-.2.07-.4.1-.593.125-.75.256-1.5.4-2.254.066-.343.139-.687.208-1.03.128-.624.259-1.248.4-1.873q.125-.553.257-1.107.218-.915.454-1.829c.1-.369.19-.739.291-1.108.177-.654.364-1.309.556-1.962.091-.314.179-.628.273-.941q.434-1.438.91-2.874c.013-.038.027-.076.04-.114q.461-1.376.963-2.748c.1-.28.209-.56.314-.839q.375-1,.769-2,.19-.481.385-.96.408-1.005.837-2.006c.114-.267.226-.534.342-.8q.606-1.392,1.25-2.772c.056-.12.115-.238.173-.358q.579-1.228,1.186-2.446c.259-.52.531-1.034.8-1.551.239-.462.475-.926.72-1.385q1.05-1.964,2.175-3.887c.147-.253.3-.5.447-.755q1.542-2.6,3.208-5.125c.168-.255.339-.508.509-.761.894-1.329,1.806-2.644,2.748-3.928.17-.232.347-.457.518-.687.516-.693,1.034-1.382,1.563-2.06.445-.57.9-1.13,1.353-1.689.206-.253.407-.512.615-.763q.991-1.2,2.008-2.361c.141-.161.286-.316.427-.475.537-.606,1.078-1.207,1.626-1.8.265-.286.535-.563.8-.845.437-.46.876-.92,1.319-1.37.3-.3.606-.6.909-.9.422-.416.844-.831,1.271-1.237.329-.313.66-.619.992-.925.418-.387.837-.771,1.26-1.147q.5-.445,1-.88.644-.556,1.293-1.1.494-.41.99-.812.681-.548,1.369-1.077c.307-.238.615-.475.923-.707.5-.378,1.013-.745,1.523-1.108.261-.186.522-.378.784-.56.764-.53,1.532-1.046,2.306-1.541l.087-.053q1.218-.775,2.451-1.492c.72-.418,1.434-.8,2.147-1.182q.4-.211.8-.414.81-.414,1.61-.791c.235-.111.471-.227.7-.333.755-.344,1.505-.672,2.25-.971l.076-.029c.724-.29,1.442-.554,2.156-.8.24-.083.477-.157.716-.236.5-.163.993-.319,1.485-.461.291-.084.58-.163.868-.24q.683-.182,1.357-.338c.287-.066.574-.133.86-.192.425-.088.847-.162,1.267-.235.329-.057.657-.115.983-.162.393-.057.782-.1,1.171-.142.351-.038.7-.08,1.049-.107s.675-.038,1.011-.054c.422-.02.843-.039,1.258-.041.3,0,.586.008.878.015.521.012,1.036.035,1.546.074.269.02.537.044.8.072.767.08,1.523.188,2.263.33.1.018.2.029.291.048.172.035.339.083.51.122.451.1.9.207,1.341.332.227.065.449.142.673.213.362.114.722.23,1.075.36.442.162.873.346,1.3.533.21.092.425.173.632.27.628.3,1.243.613,1.842.962l-17.8-10.384c-.6-.349-1.215-.667-1.843-.963-.205-.1-.418-.177-.626-.268-.431-.188-.864-.372-1.307-.535-.073-.027-.143-.063-.217-.089-.28-.1-.569-.18-.854-.269-.226-.072-.449-.149-.678-.214-.438-.125-.886-.229-1.335-.331-.172-.039-.34-.087-.515-.123l-.064-.016c-.074-.015-.153-.018-.226-.033-.741-.142-1.5-.249-2.263-.33-.117-.013-.227-.04-.344-.05-.151-.014-.308-.01-.459-.022-.511-.039-1.028-.062-1.55-.074-.181,0-.355-.025-.537-.026-.111,0-.225.01-.335.011-.418,0-.84.022-1.265.042-.239.012-.472.007-.713.024-.1.007-.2.022-.294.03-.348.027-.7.069-1.052.108-.278.031-.551.048-.832.085-.11.015-.223.04-.334.056-.327.047-.658.107-.99.163-.274.048-.545.082-.821.136-.146.028-.3.068-.443.1-.284.059-.57.125-.855.191-.238.055-.473.1-.713.159-.215.054-.435.123-.652.181-.287.077-.574.155-.864.239-.169.049-.336.089-.507.141-.324.1-.653.214-.979.321-.239.079-.477.152-.717.236-.089.031-.176.056-.265.087q-.949.334-1.91.721l-.054.02-.011,0q-.973.391-1.958.834c-.095.043-.19.092-.285.135-.232.106-.466.22-.7.331-.333.157-.664.306-1,.472-.2.1-.411.216-.616.32q-.4.2-.8.414c-.2.1-.394.2-.592.308q-.775.421-1.555.873-.24.14-.48.281-.991.585-1.971,1.212l-.086.053-.012.007q-1.044.667-2.076,1.377c-.073.051-.145.106-.219.157-.261.181-.519.371-.78.556-.377.269-.755.53-1.129.806-.135.1-.266.206-.4.307-.308.23-.613.467-.919.7-.276.212-.553.416-.827.633-.183.145-.363.3-.545.447q-.5.4-.986.808c-.215.178-.433.349-.648.531s-.434.383-.652.571q-.5.434-1,.876c-.173.155-.35.3-.523.458-.249.225-.492.461-.739.69-.332.307-.662.613-.991.926-.14.133-.283.26-.423.394-.287.277-.569.566-.854.848-.3.3-.6.591-.9.893-.1.105-.21.206-.313.311-.341.349-.675.71-1.013,1.065-.268.282-.538.559-.8.845-.064.068-.129.134-.193.2-.486.526-.964,1.064-1.441,1.6-.138.156-.278.306-.415.462l-.049.054q-.959,1.1-1.894,2.225c-.024.028-.046.058-.07.086-.2.246-.4.5-.6.747-.412.507-.826,1.011-1.23,1.527-.045.058-.088.118-.133.176-.526.673-1.04,1.359-1.553,2.047-.163.219-.332.43-.493.65-.013.016-.024.034-.036.051-.941,1.283-1.851,2.6-2.744,3.924-.1.152-.213.3-.315.45-.069.1-.129.212-.2.316q-1.665,2.516-3.207,5.124c-.073.125-.157.243-.23.368s-.142.259-.217.387q-1.121,1.925-2.176,3.888c-.028.053-.06.105-.088.158-.216.4-.419.815-.629,1.222-.267.518-.539,1.033-.8,1.554-.038.077-.079.152-.117.229-.363.729-.713,1.464-1.061,2.2-.059.126-.123.251-.182.378,0,.011-.011.022-.016.033q-.564,1.206-1.1,2.422c-.046.1-.087.207-.132.31-.118.27-.231.541-.347.812-.18.421-.364.84-.539,1.262-.1.245-.2.492-.3.738q-.194.477-.382.954c-.1.244-.2.487-.294.732-.165.425-.319.851-.477,1.276-.1.279-.212.558-.314.838-.041.111-.084.22-.124.331q-.431,1.194-.831,2.392c-.015.048-.033.095-.049.142,0,0,0,.009,0,.014q-.431,1.293-.827,2.59c-.027.088-.051.176-.077.264-.1.318-.184.637-.278.956-.139.475-.283.95-.415,1.426-.048.174-.089.347-.136.521-.1.373-.2.745-.293,1.118-.088.34-.183.68-.267,1.02-.066.269-.123.536-.187.8-.087.369-.174.738-.257,1.107-.054.238-.114.477-.166.715-.084.386-.155.77-.233,1.155-.071.344-.143.689-.21,1.032-.027.142-.059.285-.086.427-.114.61-.214,1.218-.314,1.826-.033.2-.071.4-.1.594-.006.039-.014.079-.02.118q-.2,1.264-.358,2.52c-.007.063-.013.125-.02.188-.03.236-.051.471-.079.707-.06.522-.124,1.045-.174,1.566-.016.177-.026.352-.042.529-.028.321-.052.641-.077.961s-.055.637-.075.953-.028.611-.043.917-.033.641-.045.96c-.007.184-.02.369-.026.552q-.03,1.025-.031,2.041l.066,23.538,17.8,10.384-.067-23.538c0-.859.024-1.725.057-2.593C102.558,261.686,102.574,261.366,102.59,261.046Z"/></g><g class="b"><path class="c" d="M221.731,219.634q-.008-1.2-.057-2.364c0-.1-.013-.189-.017-.285-.014-.3-.037-.588-.055-.882-.024-.4-.042-.805-.073-1.2-.014-.171-.037-.333-.052-.5-.033-.362-.071-.717-.111-1.074-.031-.281-.053-.57-.088-.846-.027-.213-.064-.416-.093-.627q-.076-.557-.164-1.1c-.035-.219-.061-.447-.1-.664s-.092-.443-.134-.668c-.077-.408-.156-.812-.242-1.211-.041-.191-.072-.392-.115-.581s-.106-.394-.155-.6q-.169-.7-.357-1.376c-.053-.192-.1-.4-.152-.586-.045-.153-.1-.293-.147-.445-.165-.54-.341-1.067-.525-1.587-.07-.2-.127-.411-.2-.606-.03-.082-.069-.156-.1-.237-.332-.876-.685-1.728-1.068-2.543-.01-.022-.018-.047-.029-.069-.024-.051-.055-.094-.079-.144a31.525,31.525,0,0,0-1.7-3.1c-.034-.056-.061-.121-.1-.175-.016-.025-.034-.046-.05-.07-.506-.792-1.048-1.537-1.612-2.253-.135-.172-.274-.338-.412-.506-.545-.659-1.109-1.292-1.7-1.881-.047-.047-.09-.1-.138-.145a24.4,24.4,0,0,0-1.991-1.727c-.167-.131-.335-.258-.5-.385a23.543,23.543,0,0,0-2.177-1.459l-3.927-2.292-1.851-1.08-3.12-1.82-3.12-1.82-1.851-1.08-3.927-2.292a23.632,23.632,0,0,1,2.178,1.46q.253.188.5.383a24.334,24.334,0,0,1,1.992,1.728c.047.046.091.1.138.144.594.589,1.158,1.221,1.7,1.88.139.168.278.335.413.507.563.715,1.1,1.461,1.611,2.253.05.079.1.165.146.245a31.407,31.407,0,0,1,1.7,3.1c.035.073.075.142.11.215.383.816.736,1.667,1.068,2.543.1.276.2.562.3.843.183.52.36,1.046.524,1.586q.156.509.3,1.03.188.68.358,1.38c.094.386.185.775.269,1.171s.166.805.243,1.214c.082.439.161.883.232,1.333q.088.546.165,1.1c.066.485.126.978.18,1.474.039.356.078.712.111,1.073.051.559.091,1.127.126,1.7.018.294.04.584.054.881.041.87.069,1.75.074,2.65L204,232.788l17.8,10.384Z"/><path class="d" d="M123.279,300.283l98.518-57.11L204,232.788,105.482,289.9Z"/><path class="e" d="M123.314,273.191q.047-.933.118-1.871c.025-.32.047-.639.076-.96.062-.7.135-1.4.216-2.1.027-.235.049-.469.078-.7q.175-1.41.4-2.828c.032-.2.07-.4.1-.593q.186-1.125.4-2.254c.066-.343.139-.686.208-1.03.127-.624.259-1.248.4-1.872q.125-.553.257-1.107.218-.914.455-1.829c.1-.369.19-.739.29-1.108.178-.654.364-1.308.556-1.962.091-.314.179-.627.274-.941q.434-1.438.91-2.874c.013-.038.027-.076.04-.114q.461-1.376.963-2.747c.1-.281.209-.56.314-.84q.374-1,.769-2,.19-.481.384-.96.408-1.005.837-2.006c.114-.267.226-.534.342-.8q.607-1.392,1.25-2.772c.056-.12.116-.238.173-.358q.579-1.229,1.187-2.446c.259-.52.531-1.034.8-1.551.239-.462.475-.926.72-1.385q1.05-1.964,2.175-3.887c.147-.253.3-.5.447-.755q1.542-2.606,3.208-5.126.253-.382.509-.761c.894-1.329,1.805-2.644,2.748-3.928.169-.232.346-.457.518-.687.516-.693,1.034-1.382,1.563-2.06.445-.57.9-1.13,1.353-1.689.206-.253.407-.512.615-.763q.991-1.2,2.008-2.361c.14-.161.286-.316.427-.475.538-.606,1.078-1.207,1.626-1.8.265-.286.535-.563.8-.845.437-.46.875-.92,1.319-1.37.3-.3.606-.6.909-.9.422-.416.845-.831,1.271-1.237.328-.313.66-.619.991-.925q.627-.58,1.26-1.147.5-.445,1-.88.644-.557,1.294-1.1.493-.41.99-.811c.454-.366.91-.724,1.369-1.077.307-.237.614-.475.923-.707.5-.378,1.014-.745,1.523-1.108.261-.186.521-.378.784-.56.764-.53,1.532-1.046,2.306-1.541.028-.018.057-.035.086-.053q1.218-.776,2.451-1.493c.72-.418,1.435-.8,2.148-1.182q.4-.211.8-.414.81-.413,1.61-.791c.235-.111.471-.227.7-.333.755-.344,1.505-.672,2.25-.97l.077-.029c.724-.289,1.442-.554,2.155-.8.24-.083.477-.157.716-.235.5-.163.993-.319,1.485-.462.29-.084.579-.163.868-.24q.682-.182,1.357-.338c.287-.066.574-.132.859-.191.426-.089.847-.163,1.268-.236.328-.057.657-.115.983-.162.393-.057.782-.1,1.171-.142.351-.038.7-.08,1.049-.107s.675-.038,1.011-.054c.421-.02.843-.039,1.258-.042.3,0,.586.008.878.015.52.012,1.036.035,1.546.074.269.02.537.044.8.072.767.081,1.523.188,2.263.33.1.018.2.029.292.048.172.035.339.083.51.122.451.1.9.207,1.341.332.227.065.449.142.673.213.362.114.721.23,1.075.36.442.162.873.346,1.3.533.21.092.425.174.631.27.628.3,1.244.614,1.842.963l-17.8-10.384c-.6-.349-1.215-.667-1.843-.963-.205-.1-.418-.177-.626-.268-.431-.188-.864-.372-1.307-.535-.074-.027-.143-.063-.217-.089-.28-.1-.569-.18-.854-.269-.226-.071-.449-.149-.678-.214-.438-.125-.885-.229-1.334-.331-.173-.039-.34-.088-.515-.123l-.065-.016c-.074-.015-.152-.018-.226-.032-.74-.142-1.5-.25-2.263-.33-.116-.013-.226-.039-.343-.05-.151-.014-.308-.01-.459-.022-.511-.039-1.028-.062-1.549-.074-.181,0-.355-.025-.537-.026-.11,0-.224.011-.335.011-.417,0-.84.022-1.264.042-.239.011-.473.007-.714.023-.1.007-.2.022-.293.03-.348.028-.7.069-1.052.108-.279.031-.552.047-.832.085-.111.015-.223.039-.334.055-.327.047-.659.107-.99.164-.274.047-.545.081-.821.136-.146.029-.3.068-.442.1-.284.059-.57.125-.856.191-.238.055-.473.1-.712.159-.215.054-.435.123-.652.181-.287.077-.575.155-.864.239-.17.049-.337.089-.507.141-.324.1-.653.214-.979.321-.238.079-.476.152-.717.236-.089.031-.176.056-.265.087q-.949.334-1.91.721l-.054.02-.011,0q-.973.391-1.958.834c-.095.043-.19.092-.285.135-.232.106-.465.221-.7.331-.333.157-.664.306-1,.472-.2.1-.411.216-.615.32q-.4.2-.8.414c-.2.1-.394.2-.593.308q-.775.421-1.555.874-.24.139-.48.281-.991.586-1.972,1.213l-.085.052-.012.007q-1.043.667-2.076,1.378c-.074.05-.146.105-.219.156-.262.181-.52.371-.78.556-.377.268-.755.529-1.129.806-.135.1-.267.206-.4.307-.308.23-.613.467-.919.7-.275.212-.553.416-.827.633-.183.145-.362.3-.545.446q-.5.4-.986.808c-.215.179-.434.349-.647.531s-.434.383-.653.571q-.5.434-1,.877c-.173.154-.35.3-.523.458-.249.225-.492.461-.739.69-.331.306-.662.613-.991.925-.14.133-.283.26-.422.394-.287.277-.569.567-.854.848-.3.3-.6.591-.9.893-.1.105-.21.206-.314.311-.341.349-.675.71-1.012,1.065-.268.282-.538.559-.8.845-.064.068-.129.134-.193.2-.486.526-.963,1.064-1.44,1.6-.138.155-.279.306-.415.462-.016.018-.033.036-.049.055q-.959,1.1-1.894,2.225c-.024.028-.046.058-.07.086-.2.246-.4.5-.6.747-.411.507-.826,1.011-1.23,1.527-.045.058-.088.118-.133.176-.526.674-1.04,1.359-1.553,2.047-.163.219-.333.43-.494.65-.012.016-.023.034-.036.051-.941,1.283-1.851,2.6-2.745,3.924-.1.153-.213.3-.315.45-.069.1-.13.212-.2.316q-1.665,2.516-3.206,5.123c-.074.125-.157.243-.23.368s-.142.259-.217.387q-1.122,1.925-2.176,3.888c-.028.053-.06.105-.088.158-.215.4-.418.815-.629,1.222-.268.518-.54,1.033-.8,1.554-.038.077-.08.152-.118.229-.362.729-.713,1.464-1.06,2.2-.059.126-.123.251-.182.378l-.016.033q-.563,1.206-1.1,2.422c-.045.1-.087.206-.132.309-.118.27-.232.542-.347.813-.18.421-.364.84-.539,1.262-.1.245-.2.492-.3.738q-.193.477-.382.955c-.1.244-.2.487-.293.731-.165.425-.319.851-.477,1.276-.1.279-.211.558-.313.838-.041.11-.084.22-.124.33q-.431,1.195-.831,2.393c-.016.047-.033.094-.049.141,0,0,0,.009,0,.014q-.432,1.294-.827,2.59c-.027.088-.051.176-.077.264-.1.319-.185.637-.278.956-.139.475-.283.95-.414,1.426-.048.174-.089.347-.136.521-.1.373-.2.745-.293,1.118-.087.34-.182.68-.267,1.02-.066.269-.123.536-.186.8q-.132.554-.257,1.107c-.054.238-.114.477-.167.715-.084.386-.155.77-.233,1.156-.07.344-.143.689-.209,1.033-.027.142-.06.284-.086.426-.114.61-.213,1.218-.314,1.826-.032.2-.071.4-.1.594-.007.039-.014.079-.021.118q-.2,1.264-.357,2.52c-.008.063-.013.126-.021.188-.029.237-.051.471-.079.707-.06.522-.124,1.046-.173,1.566-.017.177-.026.352-.042.529-.029.321-.052.641-.077.961s-.055.637-.075.953-.028.611-.043.917-.032.64-.044.96c-.007.184-.02.369-.026.552q-.031,1.025-.031,2.042l.066,23.538,17.8,10.384-.067-23.539c0-.859.024-1.725.057-2.593C123.282,273.832,123.3,273.511,123.314,273.191Z"/></g><g class="b"><path class="c" d="M242.455,231.779q-.007-1.2-.056-2.364c0-.1-.013-.189-.017-.285-.014-.3-.037-.587-.055-.882-.024-.4-.042-.8-.074-1.2-.014-.171-.036-.333-.052-.5-.033-.362-.071-.718-.111-1.074-.031-.281-.053-.57-.087-.847-.027-.213-.064-.416-.093-.627q-.077-.557-.164-1.1c-.035-.22-.061-.447-.1-.665s-.092-.443-.134-.668c-.077-.408-.156-.812-.242-1.211-.041-.191-.073-.392-.116-.581s-.106-.394-.154-.6q-.169-.7-.358-1.377c-.053-.192-.1-.4-.152-.585-.044-.153-.1-.294-.147-.445-.165-.54-.341-1.067-.524-1.587-.07-.2-.128-.41-.2-.606-.03-.082-.069-.155-.1-.237-.332-.876-.685-1.728-1.068-2.543-.01-.022-.018-.047-.029-.069-.024-.051-.055-.094-.079-.144a31.481,31.481,0,0,0-1.7-3.1c-.035-.055-.061-.121-.1-.175-.016-.025-.035-.046-.05-.07-.506-.792-1.048-1.537-1.612-2.253-.135-.172-.274-.338-.412-.506-.545-.659-1.109-1.292-1.7-1.881-.047-.047-.091-.1-.138-.145a24.484,24.484,0,0,0-1.991-1.727c-.167-.131-.335-.258-.505-.385a23.7,23.7,0,0,0-2.177-1.459l-3.927-2.292-1.851-1.08-3.12-1.82-3.12-1.821-1.851-1.08-3.927-2.292a23.721,23.721,0,0,1,2.178,1.46c.168.126.337.253.5.383a24.339,24.339,0,0,1,1.992,1.728c.047.046.091.1.138.145.594.589,1.158,1.221,1.7,1.88.139.167.278.334.413.507.564.715,1.105,1.461,1.611,2.253.051.079.1.165.147.245a31.653,31.653,0,0,1,1.7,3.1c.035.074.074.142.11.216.383.815.736,1.667,1.068,2.543.1.276.2.561.3.843.182.52.359,1.046.524,1.586q.155.509.3,1.03.188.681.358,1.38c.094.386.185.775.269,1.171s.166.805.243,1.214c.082.44.161.883.232,1.333q.087.546.164,1.1.1.728.18,1.474c.039.356.078.712.111,1.073.05.559.09,1.127.126,1.7.018.294.04.584.054.882.041.869.069,1.75.074,2.65l.067,23.538,17.8,10.384Z"/><path class="d" d="M144,312.428l98.518-57.11-17.8-10.384-98.518,57.11Z"/><path class="e" d="M144.038,285.336q.047-.933.118-1.871c.025-.319.048-.639.076-.96.061-.7.135-1.4.216-2.1.027-.235.049-.469.078-.7q.174-1.409.4-2.828c.031-.2.07-.4.1-.593.124-.75.256-1.5.4-2.254.066-.343.139-.686.209-1.03.127-.624.259-1.248.4-1.872q.125-.553.257-1.107.218-.914.455-1.829c.1-.369.19-.739.29-1.108.177-.654.364-1.308.556-1.962.091-.314.179-.627.273-.941q.435-1.438.91-2.874c.013-.038.027-.076.04-.114q.461-1.376.963-2.747c.1-.281.209-.56.314-.84q.374-1,.769-2,.19-.481.385-.96.408-1.005.837-2.006c.114-.267.225-.534.342-.8q.607-1.392,1.25-2.772c.056-.12.116-.238.173-.358q.579-1.229,1.186-2.446c.26-.52.531-1.034.8-1.551.239-.462.475-.926.72-1.385q1.05-1.964,2.175-3.888c.147-.253.3-.5.447-.755q1.542-2.606,3.208-5.126c.168-.254.339-.508.509-.761.895-1.329,1.806-2.644,2.748-3.928.17-.232.347-.457.518-.687.516-.692,1.034-1.382,1.563-2.06.445-.57.9-1.13,1.353-1.689.206-.253.407-.512.615-.763q.991-1.2,2.008-2.361c.141-.16.286-.316.427-.475.538-.606,1.078-1.207,1.626-1.8.265-.285.535-.563.8-.845.438-.46.876-.92,1.32-1.369.3-.305.605-.6.909-.9.422-.416.844-.831,1.271-1.237.328-.313.659-.619.991-.925q.627-.58,1.26-1.147.5-.446,1-.88.644-.556,1.294-1.1.493-.411.99-.812c.454-.366.91-.724,1.369-1.077.307-.237.614-.475.923-.707.5-.378,1.014-.744,1.523-1.108.262-.187.522-.378.784-.56.765-.53,1.532-1.046,2.306-1.541l.087-.053q1.218-.776,2.451-1.493c.72-.417,1.435-.8,2.147-1.182q.4-.212.8-.414.81-.413,1.61-.791c.235-.111.471-.226.7-.333.755-.344,1.505-.671,2.25-.97l.077-.029c.724-.289,1.442-.554,2.155-.8.24-.083.477-.157.716-.235.5-.163.993-.319,1.485-.462.291-.084.58-.163.868-.24q.683-.183,1.358-.338c.287-.066.574-.133.859-.192.425-.089.847-.163,1.268-.236.328-.056.657-.115.982-.162.393-.057.782-.1,1.171-.141.35-.039.7-.08,1.049-.108s.675-.038,1.011-.054c.421-.02.843-.039,1.258-.042.295,0,.586.008.878.015.521.012,1.036.035,1.546.074q.4.031.8.072c.767.081,1.523.188,2.263.33.1.018.2.029.291.048.172.035.339.083.51.122.451.1.9.207,1.341.333.227.064.449.142.673.212.361.114.721.23,1.075.36.442.162.873.346,1.3.533.21.092.426.174.632.271.628.3,1.244.613,1.842.962l-17.8-10.384c-.6-.349-1.215-.667-1.843-.963-.205-.1-.418-.177-.626-.268-.431-.188-.864-.372-1.308-.535-.073-.027-.143-.063-.217-.089-.28-.1-.569-.18-.854-.269-.226-.071-.449-.149-.678-.214-.438-.125-.885-.229-1.335-.331-.172-.039-.34-.087-.515-.123l-.064-.016c-.074-.015-.153-.019-.226-.033-.74-.143-1.5-.25-2.263-.33-.117-.012-.227-.039-.343-.05-.151-.014-.308-.011-.459-.022-.511-.039-1.028-.062-1.55-.074-.181,0-.355-.025-.537-.025-.11,0-.225.01-.335.011-.418,0-.84.022-1.264.042-.239.011-.473.007-.714.023-.1.007-.2.023-.293.03-.347.028-.7.069-1.051.108-.279.031-.552.048-.833.085-.11.015-.223.039-.334.055-.327.047-.658.107-.99.164-.274.047-.545.081-.821.136-.146.029-.3.068-.443.1-.284.059-.57.125-.855.191-.238.055-.473.1-.713.158-.215.054-.435.123-.652.181-.287.077-.574.155-.863.239-.17.049-.337.089-.507.14-.324.1-.653.215-.979.322-.239.079-.476.152-.717.235-.089.031-.176.056-.266.087q-.949.335-1.91.721l-.054.021-.011,0q-.973.391-1.958.834c-.095.043-.19.092-.285.135-.232.106-.465.22-.7.33-.333.158-.664.306-1,.473-.2.1-.411.215-.616.32q-.4.2-.8.414c-.2.105-.394.2-.592.308q-.775.422-1.555.874-.24.139-.48.281-.991.585-1.971,1.212l-.085.052-.012.007q-1.044.667-2.076,1.378c-.073.05-.145.105-.219.156-.261.181-.519.371-.78.556-.377.268-.755.529-1.129.806-.135.1-.266.207-.4.307-.308.231-.613.468-.919.7-.275.213-.553.416-.827.633-.183.145-.363.3-.545.446q-.5.4-.986.808c-.215.179-.434.349-.648.531s-.434.382-.652.571c-.335.29-.669.581-1,.877-.173.155-.35.3-.522.458-.249.225-.492.462-.739.69-.331.306-.662.613-.991.925-.14.133-.283.26-.422.394-.288.277-.569.567-.854.848-.3.3-.6.591-.9.893-.1.105-.21.205-.313.311-.341.349-.675.71-1.013,1.065-.267.282-.537.559-.8.845-.064.069-.129.134-.193.2-.486.526-.963,1.065-1.441,1.6-.138.155-.278.306-.415.462l-.049.055q-.959,1.1-1.894,2.225c-.024.029-.046.058-.07.086-.2.246-.4.5-.6.747-.412.506-.826,1.011-1.23,1.527-.045.058-.088.118-.133.175-.526.674-1.04,1.359-1.553,2.047-.163.219-.332.43-.493.65l-.036.051c-.941,1.283-1.851,2.6-2.744,3.924-.1.152-.213.3-.315.45-.07.1-.13.212-.2.316q-1.665,2.516-3.207,5.123c-.073.125-.156.243-.23.368s-.142.259-.217.387c-.747,1.283-1.476,2.579-2.175,3.889-.028.053-.06.1-.088.158-.216.405-.419.815-.629,1.222-.268.518-.54,1.033-.8,1.554-.038.077-.08.152-.118.228-.363.73-.713,1.464-1.06,2.2-.06.126-.123.251-.182.378,0,.011-.011.022-.016.033q-.564,1.206-1.1,2.422c-.045.1-.087.206-.132.309-.118.27-.231.542-.347.813-.181.421-.364.84-.539,1.262-.1.245-.2.492-.3.738q-.194.477-.382.955c-.1.244-.2.487-.293.731-.165.425-.319.851-.477,1.276-.1.28-.212.558-.313.838-.041.11-.084.22-.124.33q-.432,1.195-.831,2.393c-.015.047-.033.094-.049.141l0,.014q-.431,1.293-.827,2.589c-.027.088-.051.176-.077.265-.1.318-.184.637-.278.955-.139.475-.283.951-.415,1.426-.048.173-.089.347-.136.521-.1.373-.2.745-.293,1.118-.088.34-.183.681-.267,1.02-.066.268-.123.536-.187.8-.087.369-.174.738-.257,1.107-.054.238-.114.477-.166.715-.084.386-.155.77-.233,1.155-.07.345-.143.689-.21,1.033-.027.142-.059.284-.086.426-.114.61-.214,1.218-.314,1.826-.033.2-.071.4-.1.594-.006.039-.014.079-.02.118q-.2,1.264-.358,2.52c-.007.063-.013.126-.02.188-.029.237-.051.471-.079.707-.06.522-.124,1.046-.174,1.566-.016.177-.026.353-.042.529-.028.321-.052.641-.077.961s-.055.637-.075.954-.028.611-.043.917-.033.641-.045.96c-.007.184-.02.369-.025.553q-.031,1.024-.031,2.041l.066,23.539L144,312.428l-.067-23.538c0-.859.024-1.725.057-2.594C144,285.977,144.021,285.656,144.038,285.336Z"/></g><g class="b"><path class="c" d="M263.179,243.925q-.008-1.2-.056-2.365c0-.1-.013-.189-.018-.285-.014-.3-.036-.587-.055-.881-.024-.4-.042-.805-.073-1.2-.014-.171-.037-.333-.052-.5-.033-.362-.071-.718-.111-1.074-.031-.281-.053-.57-.088-.847-.027-.213-.064-.416-.093-.627q-.077-.557-.165-1.1c-.035-.22-.061-.447-.1-.664s-.092-.443-.134-.668c-.076-.408-.156-.813-.242-1.212-.041-.191-.072-.391-.115-.581s-.106-.394-.155-.595q-.169-.7-.357-1.377c-.053-.192-.1-.4-.152-.585-.044-.153-.1-.294-.147-.445-.165-.54-.341-1.067-.525-1.587-.069-.2-.127-.41-.2-.606-.03-.082-.069-.155-.1-.237-.331-.876-.684-1.728-1.068-2.543-.01-.022-.018-.047-.029-.069-.024-.051-.055-.094-.079-.144a31.267,31.267,0,0,0-1.7-3.1c-.034-.055-.061-.121-.1-.175-.016-.025-.034-.046-.05-.07-.507-.792-1.049-1.538-1.612-2.254-.135-.172-.274-.338-.413-.506-.545-.659-1.109-1.291-1.7-1.881-.047-.047-.09-.1-.138-.144a24.311,24.311,0,0,0-1.991-1.727c-.167-.131-.335-.258-.5-.384a23.544,23.544,0,0,0-2.177-1.46l-3.927-2.291-1.851-1.08-3.12-1.82-3.12-1.82-1.851-1.08-3.927-2.292a23.828,23.828,0,0,1,2.178,1.46c.169.126.337.253.5.383a24.258,24.258,0,0,1,1.992,1.728c.047.046.091.1.138.145.593.589,1.158,1.221,1.7,1.88.139.167.278.334.413.507.563.716,1.1,1.461,1.611,2.253.051.079.1.165.147.245a31.559,31.559,0,0,1,1.7,3.1c.035.073.075.141.11.215.383.815.736,1.667,1.068,2.543.1.276.2.561.3.843.183.52.36,1.047.524,1.586q.156.509.3,1.03.189.68.358,1.38c.094.386.184.775.269,1.171s.166.805.242,1.214q.124.659.233,1.333.087.546.164,1.1c.067.485.126.978.18,1.474.039.355.078.711.111,1.073.051.559.091,1.127.125,1.7.018.294.04.584.054.882.041.869.07,1.75.074,2.65l.067,23.539,17.8,10.384Z"/><path class="d" d="M164.726,324.573l98.518-57.11-17.8-10.384-98.518,57.11Z"/><path class="e" d="M164.761,297.482q.047-.933.118-1.871c.025-.319.047-.639.076-.96.062-.7.135-1.4.216-2.1.027-.235.049-.469.078-.7q.174-1.409.4-2.828c.031-.2.07-.4.1-.593q.186-1.125.4-2.254c.066-.343.139-.687.208-1.03.128-.623.259-1.248.4-1.872q.125-.553.257-1.107.217-.914.454-1.829c.1-.369.19-.739.291-1.108.177-.654.364-1.308.556-1.962.091-.314.179-.627.273-.941q.434-1.438.91-2.874c.013-.038.027-.076.04-.114q.461-1.375.963-2.747c.1-.28.21-.56.314-.84q.375-1,.769-2,.19-.48.384-.959.408-1.005.837-2.006c.114-.267.226-.534.342-.8q.607-1.391,1.25-2.771c.056-.12.115-.238.172-.358q.579-1.229,1.187-2.446c.259-.52.531-1.034.8-1.551.239-.462.475-.926.72-1.385q1.05-1.964,2.175-3.888c.147-.253.3-.5.447-.755q1.542-2.606,3.207-5.125.253-.382.509-.761c.895-1.329,1.805-2.644,2.748-3.928.169-.232.346-.457.518-.686.516-.693,1.034-1.383,1.563-2.06.445-.57.9-1.13,1.353-1.689.207-.253.407-.512.615-.763q.991-1.2,2.008-2.361c.14-.16.286-.316.427-.475.537-.606,1.078-1.207,1.626-1.8.265-.285.535-.563.8-.845.437-.46.875-.92,1.319-1.37.3-.305.606-.6.909-.9.422-.416.845-.831,1.271-1.237.328-.312.66-.618.991-.925.418-.386.838-.77,1.26-1.147q.5-.446,1.005-.88.643-.556,1.293-1.1.493-.41.99-.812c.454-.366.91-.724,1.369-1.077.307-.237.614-.475.923-.707.505-.378,1.014-.744,1.523-1.108.261-.187.521-.378.784-.56.764-.53,1.532-1.046,2.306-1.541l.086-.053q1.218-.776,2.451-1.493c.72-.417,1.435-.8,2.148-1.182q.4-.212.8-.414c.539-.276,1.076-.538,1.61-.791.235-.111.471-.226.7-.333.755-.344,1.506-.672,2.25-.971l.076-.029c.724-.289,1.442-.554,2.155-.8.24-.083.478-.157.716-.236.5-.163.993-.319,1.485-.461.29-.084.58-.163.868-.24q.683-.182,1.357-.338c.287-.066.574-.133.86-.192.425-.089.847-.163,1.267-.235.328-.057.657-.116.983-.163.393-.057.782-.1,1.171-.141.351-.039.7-.08,1.049-.108s.674-.038,1.011-.054c.421-.02.843-.039,1.258-.042.3,0,.586.008.878.015.52.012,1.036.035,1.546.074q.4.031.8.072c.767.08,1.523.187,2.263.33.1.019.2.029.292.048.172.035.339.083.51.122.451.1.9.207,1.341.333.227.064.449.142.673.212.362.114.721.23,1.075.36.442.162.873.346,1.3.533.21.091.425.173.631.27.628.3,1.243.613,1.842.962l-17.8-10.384c-.6-.349-1.215-.667-1.843-.963-.205-.1-.418-.177-.626-.268-.431-.188-.864-.372-1.307-.535-.074-.027-.143-.063-.217-.089-.28-.1-.569-.18-.854-.27-.226-.071-.449-.149-.678-.214-.438-.125-.886-.229-1.335-.331-.173-.039-.34-.087-.515-.123l-.065-.016c-.074-.015-.152-.019-.226-.033-.74-.142-1.5-.249-2.263-.33-.117-.012-.227-.039-.344-.05-.151-.014-.308-.011-.459-.022-.51-.039-1.028-.062-1.549-.074-.181,0-.355-.025-.537-.025-.11,0-.224.01-.335.011-.418,0-.841.022-1.265.042-.239.011-.473.007-.714.024-.1.006-.2.022-.293.03-.348.027-.7.069-1.052.108-.278.031-.552.048-.832.085-.11.015-.224.039-.334.055-.327.048-.659.107-.99.164-.274.047-.545.081-.821.136-.146.029-.295.068-.442.1-.284.059-.57.125-.855.191-.238.055-.473.1-.713.159-.215.054-.435.123-.652.18-.287.077-.575.156-.864.239-.169.049-.337.089-.507.141-.324.1-.653.214-.979.321-.238.079-.476.152-.716.235-.089.031-.176.056-.266.087q-.949.335-1.91.721l-.054.021-.011,0q-.973.391-1.958.834c-.095.042-.19.092-.285.135-.232.106-.466.22-.7.33-.333.158-.664.306-1,.473-.2.1-.411.215-.615.32q-.4.2-.8.414c-.2.1-.394.2-.593.308q-.775.422-1.555.874-.24.139-.48.281-.991.585-1.972,1.212l-.085.052-.012.008q-1.043.667-2.076,1.377c-.073.05-.146.105-.219.156-.261.181-.519.371-.78.556-.376.268-.754.529-1.129.806-.135.1-.267.206-.4.307-.307.231-.613.468-.918.7-.276.213-.553.416-.827.633-.183.145-.363.3-.545.446q-.5.4-.986.808c-.215.179-.434.349-.648.531s-.434.382-.652.571q-.5.435-1,.877c-.173.155-.35.3-.523.458-.249.225-.492.462-.739.69-.332.306-.662.613-.991.925-.14.133-.283.26-.422.395-.287.277-.569.566-.854.848-.3.3-.6.591-.9.893-.1.105-.21.206-.313.311-.342.349-.675.71-1.013,1.066-.268.282-.538.559-.8.844-.064.069-.129.134-.194.2-.485.526-.963,1.064-1.44,1.6-.138.155-.279.306-.415.462l-.049.055q-.959,1.1-1.894,2.225c-.024.029-.046.058-.07.086-.2.246-.4.5-.6.747-.411.507-.826,1.011-1.23,1.527-.045.058-.088.118-.133.176-.526.673-1.04,1.359-1.553,2.047-.163.219-.332.43-.493.65l-.036.051c-.941,1.283-1.851,2.6-2.745,3.924-.1.152-.213.3-.315.45-.069.1-.129.212-.2.316q-1.665,2.516-3.207,5.123c-.074.125-.157.243-.23.368s-.142.259-.217.387q-1.121,1.926-2.176,3.889c-.028.053-.06.1-.088.158-.216.405-.419.816-.629,1.223-.268.517-.54,1.033-.8,1.554-.038.077-.08.152-.118.228-.362.73-.713,1.464-1.06,2.2-.059.126-.123.251-.182.378l-.016.033q-.564,1.207-1.1,2.422c-.045.1-.087.206-.132.309-.118.27-.231.542-.347.813-.18.421-.364.84-.539,1.262-.1.245-.2.492-.295.738q-.194.477-.383.955c-.1.244-.2.487-.293.732-.165.424-.319.851-.478,1.276-.1.279-.211.558-.313.838-.041.11-.084.22-.124.33q-.431,1.195-.831,2.393c-.015.047-.033.094-.049.142,0,0,0,.009,0,.014q-.431,1.293-.827,2.589c-.027.088-.051.176-.077.265-.1.318-.185.637-.278.955-.139.475-.283.951-.415,1.426-.048.174-.089.347-.136.521-.1.373-.2.745-.293,1.118-.087.34-.182.681-.266,1.02-.066.268-.123.536-.187.8q-.132.554-.257,1.107c-.054.238-.114.477-.166.716-.084.385-.155.77-.234,1.155-.07.345-.143.689-.209,1.033-.027.142-.059.284-.086.426-.114.61-.214,1.218-.315,1.826-.032.2-.071.4-.1.594-.007.039-.014.079-.021.118q-.2,1.264-.357,2.521c-.008.063-.013.125-.021.188-.029.236-.051.471-.078.706-.06.522-.124,1.046-.174,1.566-.016.177-.026.353-.042.53-.028.321-.052.641-.077.961s-.055.637-.075.954-.028.611-.043.917-.032.641-.044.96c-.007.183-.02.369-.026.552q-.03,1.024-.031,2.041l.066,23.539,17.8,10.384-.067-23.538c0-.859.024-1.725.057-2.594C164.729,298.122,164.745,297.8,164.761,297.482Z"/></g><g class="b"><path class="c" d="M283.9,256.07q-.007-1.2-.056-2.365c0-.1-.013-.189-.017-.285-.014-.3-.037-.587-.055-.881-.024-.4-.042-.805-.074-1.2-.014-.171-.036-.333-.051-.5-.033-.362-.072-.718-.111-1.074-.031-.281-.052-.57-.087-.847-.027-.213-.064-.416-.093-.627q-.077-.557-.164-1.1c-.035-.22-.061-.447-.1-.664s-.092-.443-.134-.668c-.077-.408-.156-.812-.242-1.211-.041-.191-.072-.392-.116-.581-.046-.2-.105-.394-.154-.6q-.169-.7-.357-1.377c-.053-.192-.1-.4-.152-.586-.044-.153-.1-.294-.147-.445-.165-.54-.342-1.067-.525-1.587-.07-.2-.128-.41-.2-.605-.03-.082-.069-.156-.1-.238-.332-.876-.685-1.727-1.068-2.543-.01-.022-.018-.047-.029-.069-.024-.051-.055-.094-.079-.144a31.531,31.531,0,0,0-1.7-3.1c-.035-.055-.061-.121-.1-.175-.016-.025-.035-.045-.05-.07-.506-.792-1.048-1.538-1.612-2.253-.135-.172-.274-.339-.412-.506-.545-.659-1.109-1.291-1.7-1.881-.047-.047-.091-.1-.138-.144a24.307,24.307,0,0,0-1.991-1.727c-.167-.131-.336-.259-.5-.385a23.719,23.719,0,0,0-2.177-1.46l-3.927-2.291-1.851-1.08-3.12-1.82-3.12-1.82-1.851-1.08-3.927-2.291a23.626,23.626,0,0,1,2.178,1.46c.168.126.337.253.5.383a24.534,24.534,0,0,1,1.992,1.728c.047.047.091.1.138.145.594.589,1.158,1.221,1.7,1.88.139.167.278.335.413.507.564.715,1.105,1.46,1.611,2.252.051.079.1.165.147.246a31.608,31.608,0,0,1,1.7,3.1c.035.073.074.142.11.215.383.815.736,1.667,1.068,2.543.1.276.2.561.3.843.183.52.36,1.046.524,1.586q.155.509.3,1.03.188.68.358,1.381c.094.386.185.775.269,1.17s.166.806.243,1.214c.082.44.161.883.232,1.333.058.364.113.731.164,1.1.067.485.126.978.181,1.474.039.355.078.712.111,1.073.051.559.09,1.128.126,1.7.018.294.04.584.054.882.041.869.069,1.75.074,2.65l.066,23.538,17.8,10.384Z"/><path class="d" d="M185.45,336.718l98.518-57.11-17.8-10.384-98.518,57.11Z"/><path class="e" d="M185.485,309.627q.047-.932.118-1.871c.025-.32.048-.639.076-.96.062-.7.135-1.4.216-2.1.027-.235.049-.469.078-.7q.174-1.409.4-2.827c.032-.2.07-.4.1-.593q.186-1.125.4-2.254c.066-.343.139-.687.209-1.03.127-.623.259-1.248.4-1.872q.125-.553.257-1.107.218-.915.455-1.829c.1-.37.19-.739.29-1.108.177-.654.364-1.309.556-1.962.091-.314.179-.628.273-.941q.435-1.437.911-2.874c.013-.038.027-.076.04-.114q.461-1.376.963-2.748c.1-.28.209-.56.314-.84q.374-1,.769-2,.19-.48.384-.959.408-1.005.837-2.006c.114-.267.225-.534.342-.8q.607-1.392,1.25-2.772c.056-.12.116-.238.173-.358q.579-1.228,1.187-2.446c.259-.52.531-1.034.8-1.55.239-.462.475-.926.72-1.385q1.049-1.964,2.175-3.888c.147-.253.3-.5.447-.755q1.542-2.6,3.208-5.125c.168-.255.339-.508.509-.761.895-1.329,1.805-2.643,2.748-3.928.17-.232.347-.456.518-.686.516-.693,1.034-1.382,1.563-2.06.445-.57.9-1.13,1.353-1.689.206-.253.407-.512.615-.763q.991-1.2,2.009-2.361c.14-.161.286-.316.427-.475.538-.606,1.078-1.207,1.626-1.8.266-.285.535-.563.8-.845.438-.46.876-.92,1.32-1.37.3-.305.606-.6.909-.9.422-.416.844-.831,1.271-1.237.328-.313.66-.619.991-.925.418-.387.838-.771,1.26-1.147.334-.3.669-.589,1-.88q.644-.556,1.294-1.1.493-.41.99-.812c.454-.366.91-.724,1.369-1.077.307-.237.614-.475.923-.707.5-.379,1.014-.745,1.523-1.108.262-.186.522-.378.784-.56.765-.53,1.532-1.046,2.307-1.541l.086-.053q1.218-.776,2.451-1.493c.72-.417,1.435-.8,2.147-1.182q.4-.211.8-.414c.54-.276,1.076-.538,1.61-.791.235-.111.471-.226.7-.333.755-.344,1.505-.672,2.249-.971l.077-.029c.724-.289,1.442-.554,2.155-.8.24-.083.477-.157.716-.236.5-.163.993-.319,1.485-.461.291-.084.58-.163.868-.24q.682-.182,1.357-.338c.287-.066.574-.133.859-.192.426-.088.847-.163,1.268-.235.328-.057.657-.116.982-.163.393-.057.782-.1,1.171-.141.351-.039.7-.08,1.049-.108s.675-.038,1.011-.054c.421-.02.843-.039,1.258-.042.3,0,.586.008.878.015.52.012,1.036.035,1.546.074.269.021.536.044.8.072.767.08,1.523.188,2.263.33.1.018.2.029.291.048.172.035.339.083.51.122.451.1.9.207,1.341.332.227.065.449.142.673.213.361.114.721.23,1.075.36.442.162.873.346,1.3.533.21.092.426.173.632.27.628.3,1.243.613,1.842.962l-17.8-10.384c-.6-.349-1.215-.667-1.843-.963-.205-.1-.418-.177-.626-.268-.431-.188-.864-.372-1.308-.535-.073-.027-.143-.063-.217-.089-.279-.1-.569-.18-.854-.269-.226-.072-.449-.149-.678-.214-.438-.125-.885-.23-1.334-.331-.173-.039-.34-.087-.515-.123l-.065-.016c-.074-.015-.152-.019-.226-.033-.74-.143-1.5-.249-2.263-.33-.116-.012-.227-.039-.343-.05-.151-.014-.308-.01-.459-.022-.511-.039-1.028-.062-1.549-.074-.181,0-.355-.025-.537-.026-.11,0-.225.01-.335.011-.418,0-.84.022-1.264.042-.239.011-.473.007-.714.024-.1.007-.2.022-.294.03-.347.027-.7.069-1.051.108-.279.031-.552.048-.833.085-.11.015-.223.039-.334.055-.328.048-.659.107-.99.164-.275.048-.545.082-.821.136-.146.029-.3.068-.443.1-.284.059-.57.125-.855.191-.238.055-.473.1-.712.159-.215.054-.435.123-.652.18-.287.077-.574.156-.863.239-.17.049-.337.089-.507.141-.324.1-.653.214-.979.321-.239.079-.476.152-.717.235-.089.031-.176.056-.265.087q-.949.335-1.91.721l-.054.021-.011,0q-.973.391-1.958.834c-.095.042-.19.092-.285.135-.232.106-.465.22-.7.331-.333.157-.664.306-1,.472-.2.1-.411.216-.616.32q-.4.2-.8.414c-.2.1-.394.2-.593.308q-.775.421-1.555.873-.24.14-.48.281-.991.585-1.972,1.212l-.085.053-.012.007q-1.043.667-2.076,1.377c-.074.05-.146.105-.219.156-.261.181-.519.371-.78.556-.377.268-.755.529-1.129.806-.135.1-.267.206-.4.307-.308.23-.613.467-.919.7-.275.212-.553.416-.827.633-.183.145-.363.3-.545.446q-.5.4-.986.808c-.215.179-.433.35-.648.531s-.434.383-.652.571q-.5.434-1,.876c-.173.155-.35.3-.522.458-.249.225-.492.461-.739.69-.331.307-.662.613-.991.925-.14.133-.283.26-.422.395-.287.277-.569.566-.854.848-.3.3-.6.591-.9.893-.1.105-.21.205-.313.311-.341.349-.675.711-1.013,1.066-.267.282-.537.559-.8.844-.064.069-.129.134-.193.2-.486.526-.963,1.064-1.44,1.6-.138.156-.279.306-.415.462l-.049.054q-.959,1.1-1.893,2.225c-.024.028-.046.058-.07.086-.2.246-.4.5-.6.747-.411.507-.826,1.011-1.23,1.527-.045.058-.088.118-.133.176-.526.673-1.04,1.359-1.552,2.047-.163.219-.333.431-.494.65-.013.017-.024.035-.036.051-.941,1.283-1.851,2.6-2.745,3.924-.1.152-.213.3-.315.45-.069.1-.13.212-.2.316q-1.665,2.516-3.207,5.124c-.073.125-.156.243-.23.367s-.142.259-.217.387c-.747,1.284-1.476,2.579-2.175,3.889-.028.053-.06.1-.088.159-.216.4-.419.815-.629,1.222-.268.517-.54,1.033-.8,1.554-.038.077-.08.152-.118.228-.363.73-.713,1.465-1.06,2.2-.06.126-.123.252-.182.378q-.007.017-.016.033-.564,1.207-1.1,2.422c-.045.1-.087.206-.132.31-.118.27-.231.541-.347.812-.181.421-.364.84-.539,1.262-.1.245-.2.492-.3.738q-.193.478-.382.955c-.1.244-.2.487-.294.732-.165.424-.319.851-.477,1.276-.1.279-.212.558-.313.838-.041.111-.084.22-.124.33q-.432,1.195-.831,2.393c-.015.047-.033.094-.049.142a.077.077,0,0,1,0,.014q-.431,1.293-.827,2.589c-.027.088-.05.176-.077.265-.1.318-.185.637-.278.956-.139.475-.283.95-.414,1.426-.048.174-.089.347-.137.521-.1.373-.2.745-.293,1.118-.088.34-.183.68-.267,1.02-.066.268-.123.536-.187.8q-.131.554-.257,1.107c-.054.238-.114.477-.166.715-.084.385-.155.77-.233,1.155-.07.345-.143.689-.209,1.033-.027.142-.06.284-.086.427-.114.61-.214,1.218-.314,1.826-.032.2-.071.4-.1.593-.006.04-.014.079-.02.119q-.2,1.264-.357,2.52c-.008.063-.013.125-.021.188-.029.236-.051.471-.079.706-.06.522-.124,1.046-.174,1.566-.016.177-.026.352-.042.529-.029.321-.052.641-.076.961s-.055.637-.075.954-.028.611-.043.917-.032.641-.044.96c-.007.184-.02.369-.026.552q-.031,1.025-.031,2.041l.066,23.539,17.8,10.384-.067-23.538c0-.859.024-1.725.057-2.594C185.452,310.268,185.469,309.947,185.485,309.627Z"/></g><g class="b"><path class="c" d="M304.626,268.215q-.007-1.2-.056-2.365c0-.1-.013-.189-.018-.285-.014-.3-.036-.587-.055-.881-.024-.4-.042-.805-.073-1.2-.013-.171-.037-.333-.052-.5-.033-.362-.071-.717-.111-1.074-.031-.281-.053-.569-.087-.847-.027-.213-.064-.415-.093-.626q-.077-.558-.164-1.1c-.035-.219-.061-.447-.1-.664s-.091-.443-.134-.668c-.076-.408-.156-.812-.242-1.211-.041-.191-.073-.392-.116-.581s-.106-.394-.154-.6q-.169-.7-.358-1.377c-.053-.192-.1-.4-.152-.585-.044-.153-.1-.294-.147-.445-.165-.54-.341-1.067-.525-1.587-.069-.2-.127-.41-.2-.605-.031-.082-.069-.156-.1-.237-.331-.876-.684-1.728-1.068-2.544-.01-.022-.018-.047-.029-.069-.024-.051-.055-.094-.079-.144a31.493,31.493,0,0,0-1.7-3.1c-.035-.055-.061-.12-.1-.175-.016-.024-.034-.045-.05-.07-.507-.792-1.049-1.538-1.612-2.253-.135-.172-.274-.339-.413-.506-.545-.659-1.109-1.291-1.7-1.88-.047-.047-.091-.1-.139-.145a24.317,24.317,0,0,0-1.991-1.727c-.167-.131-.335-.259-.5-.385a23.646,23.646,0,0,0-2.177-1.46l-3.926-2.291-1.851-1.08-3.12-1.82-3.12-1.82-1.851-1.08-3.927-2.291a23.688,23.688,0,0,1,2.177,1.46q.253.188.5.383A24.5,24.5,0,0,1,277,229.5c.047.047.09.1.138.145.594.589,1.158,1.221,1.7,1.88.139.168.278.335.413.507.564.715,1.105,1.461,1.611,2.252.051.079.1.166.147.246a31.605,31.605,0,0,1,1.7,3.1c.035.073.074.142.11.215.383.815.736,1.667,1.067,2.543.1.276.2.561.3.843.182.52.359,1.046.524,1.586q.156.509.3,1.031.189.68.358,1.38c.094.386.184.775.269,1.17s.166.806.243,1.215q.123.659.232,1.333.087.546.164,1.1c.067.485.126.978.18,1.474.039.356.078.712.111,1.073.051.559.091,1.127.126,1.7.018.294.04.584.054.881.041.87.069,1.75.074,2.65l.067,23.538,17.8,10.384Z"/><path class="d" d="M206.174,348.864l98.518-57.11-17.8-10.384-98.518,57.11Z"/><path class="e" d="M206.209,321.772q.048-.932.118-1.871c.025-.32.048-.639.076-.96.061-.7.135-1.4.216-2.1.027-.235.049-.469.078-.7q.175-1.41.4-2.828c.031-.2.07-.4.1-.593q.186-1.125.4-2.254c.066-.343.139-.687.208-1.03.128-.624.259-1.248.4-1.873q.125-.553.257-1.107.218-.915.454-1.829c.1-.369.19-.739.291-1.108.177-.654.364-1.309.556-1.962.091-.314.179-.628.273-.941q.434-1.438.91-2.874c.013-.038.027-.076.04-.114q.461-1.376.963-2.748c.1-.28.21-.56.314-.839q.375-1,.769-2,.19-.481.385-.96.408-1.005.837-2.006c.114-.267.226-.534.342-.8q.606-1.392,1.25-2.772c.056-.12.115-.238.173-.358q.579-1.228,1.186-2.446c.259-.52.531-1.034.8-1.55.239-.462.475-.926.72-1.385q1.05-1.964,2.175-3.887c.147-.253.3-.5.447-.755q1.542-2.6,3.208-5.125c.168-.255.339-.508.509-.761.895-1.329,1.805-2.643,2.748-3.928.17-.232.347-.457.518-.687.516-.693,1.034-1.382,1.563-2.06.445-.57.9-1.13,1.353-1.689.206-.254.407-.512.615-.763q.991-1.2,2.008-2.361c.141-.161.286-.316.427-.475.537-.606,1.078-1.207,1.626-1.8.265-.286.535-.563.8-.845.437-.46.876-.92,1.319-1.37.3-.3.606-.6.909-.9.422-.416.844-.831,1.271-1.237.329-.313.66-.619.992-.925.418-.387.837-.771,1.26-1.147q.5-.445,1-.88.643-.556,1.293-1.1.494-.41.99-.812.681-.548,1.369-1.077c.308-.237.615-.475.923-.707.5-.378,1.013-.745,1.523-1.108.261-.186.521-.378.784-.56.764-.53,1.532-1.046,2.306-1.541l.087-.053q1.218-.775,2.451-1.492c.72-.418,1.434-.8,2.147-1.182q.4-.211.8-.414.81-.414,1.61-.79c.235-.111.471-.227.7-.333.754-.344,1.505-.672,2.25-.971l.076-.029c.724-.29,1.442-.554,2.156-.8.24-.083.477-.157.716-.236.5-.163.993-.319,1.485-.461.29-.084.58-.163.868-.24q.683-.182,1.357-.338c.287-.066.574-.133.86-.192.425-.088.847-.162,1.267-.235.329-.057.657-.115.983-.162.393-.057.782-.1,1.171-.142.351-.038.7-.08,1.049-.107s.675-.038,1.011-.054c.422-.02.843-.039,1.258-.041.3,0,.586.008.878.015.521.012,1.036.035,1.546.074.269.02.537.044.8.072.767.08,1.523.188,2.263.33.1.018.2.029.291.048.172.035.339.083.51.122.451.1.9.207,1.341.332.227.065.449.142.673.213.362.114.722.23,1.075.36.442.162.873.346,1.3.533.21.092.425.173.631.27.628.3,1.244.613,1.842.962l-17.8-10.384c-.6-.349-1.215-.667-1.843-.963-.206-.1-.418-.177-.626-.268-.431-.188-.864-.372-1.307-.535-.074-.027-.143-.063-.217-.089-.28-.1-.569-.18-.854-.269-.226-.072-.449-.149-.678-.214-.438-.125-.886-.229-1.335-.331-.173-.039-.34-.087-.515-.123l-.065-.016c-.074-.015-.152-.018-.226-.033-.74-.142-1.5-.249-2.263-.33-.117-.013-.227-.04-.344-.05-.151-.014-.308-.01-.459-.022-.51-.039-1.027-.062-1.549-.074-.181,0-.355-.025-.537-.026-.11,0-.224.01-.335.011-.418,0-.84.022-1.265.042-.239.012-.473.007-.713.024-.1.007-.2.022-.293.03-.348.027-.7.069-1.052.108-.278.031-.551.047-.832.085-.11.015-.223.04-.334.056-.327.047-.658.107-.99.163-.274.048-.545.082-.821.136-.146.028-.3.068-.443.1-.284.059-.57.125-.855.191-.238.055-.473.1-.713.159-.215.054-.435.123-.652.181-.287.077-.574.155-.864.239-.169.049-.337.089-.507.141-.324.1-.653.214-.979.321-.239.079-.477.152-.717.236-.089.031-.176.056-.265.087q-.949.334-1.91.721l-.054.02-.011,0q-.973.391-1.958.834c-.095.043-.19.092-.285.135-.232.106-.466.22-.7.331-.333.157-.664.306-1,.472-.2.1-.411.216-.615.32q-.4.2-.8.414c-.2.1-.394.2-.593.308q-.775.421-1.555.873l-.48.281q-.991.585-1.971,1.212l-.086.053-.012.007q-1.043.667-2.076,1.377c-.073.051-.146.106-.219.157-.261.181-.519.371-.78.556-.376.269-.755.53-1.129.806-.135.1-.267.206-.4.307-.308.23-.613.467-.919.7-.276.212-.553.416-.827.633-.183.145-.363.3-.545.447q-.5.4-.986.808c-.215.178-.433.349-.648.531s-.434.383-.652.571q-.5.434-1,.876c-.173.155-.35.3-.523.458-.249.225-.492.461-.739.69-.332.307-.662.613-.991.926-.14.133-.283.26-.423.394-.287.277-.569.566-.854.848-.3.3-.6.591-.9.893-.1.105-.21.206-.313.311-.341.349-.675.71-1.013,1.065-.268.282-.538.559-.8.845-.064.068-.129.134-.193.2-.486.526-.964,1.064-1.441,1.6-.138.156-.278.306-.415.462l-.049.054q-.959,1.1-1.894,2.225c-.024.028-.046.058-.07.086-.2.246-.4.5-.6.747-.412.507-.826,1.011-1.23,1.527-.045.058-.088.118-.133.176-.526.673-1.04,1.359-1.553,2.047-.163.218-.332.43-.493.65-.013.017-.024.034-.036.051-.941,1.283-1.851,2.6-2.744,3.924-.1.152-.213.3-.315.45-.069.1-.129.212-.2.316q-1.665,2.516-3.207,5.124c-.073.125-.157.243-.23.368s-.142.259-.217.387q-1.121,1.925-2.176,3.888c-.028.053-.06.105-.088.159-.216.4-.419.815-.629,1.222-.267.518-.539,1.033-.8,1.554-.038.077-.08.152-.117.229-.363.729-.713,1.464-1.061,2.2-.059.126-.123.251-.182.378,0,.011-.011.022-.016.033q-.564,1.206-1.1,2.422c-.046.1-.087.207-.132.31-.118.27-.231.541-.347.812-.18.421-.364.84-.539,1.262-.1.245-.2.492-.295.738q-.194.477-.383.954c-.1.244-.2.487-.293.732-.165.425-.319.851-.477,1.276-.1.279-.212.558-.314.837-.041.111-.084.22-.124.331q-.431,1.194-.831,2.392c-.015.047-.033.095-.049.142a.141.141,0,0,1,0,.014q-.431,1.293-.827,2.59c-.027.088-.051.176-.077.264-.1.318-.184.637-.278.956-.139.475-.283.95-.415,1.426-.048.173-.089.347-.136.521-.1.373-.2.745-.293,1.118-.087.34-.182.68-.266,1.02-.066.269-.123.536-.187.8-.087.369-.174.738-.257,1.107-.054.238-.114.477-.166.715-.084.386-.155.77-.233,1.155-.071.344-.143.689-.21,1.032-.027.142-.059.285-.086.427-.114.61-.214,1.218-.314,1.826-.033.2-.071.4-.1.594-.006.039-.014.079-.021.118q-.2,1.264-.357,2.52c-.007.063-.013.125-.02.188-.03.236-.051.471-.079.707-.06.522-.124,1.045-.174,1.566-.016.177-.026.352-.042.529-.028.321-.052.641-.077.961s-.055.637-.075.953-.028.611-.043.917-.033.641-.045.96c-.007.184-.02.369-.026.552q-.03,1.025-.031,2.041l.066,23.538,17.8,10.384-.067-23.538c0-.859.024-1.725.057-2.593C206.176,322.413,206.192,322.092,206.209,321.772Z"/></g></g></svg>