<svg xmlns="http://www.w3.org/2000/svg" width="241" height="218" viewBox="0 0 241 218"><defs><style>.a{opacity:0.702;}.b{fill:#b4631b;}.c{fill:#fe9e2c;}</style></defs><g class="a" transform="translate(-301.474 -487.898)"><path class="b" d="M402.845,528.032c.049-.805.106-1.6.177-2.39.046-.513.1-1.02.157-1.525.077-.7.162-1.4.257-2.082q.108-.787.233-1.557c.1-.638.214-1.265.331-1.888.109-.579.223-1.151.345-1.717s.251-1.112.384-1.659q.239-.988.507-1.947.2-.738.425-1.462c.234-.761.484-1.505.743-2.238.142-.4.28-.808.429-1.2.471-1.238.971-2.443,1.517-3.6.423-.9.866-1.772,1.332-2.616.053-.1.112-.184.166-.28.424-.755.862-1.492,1.32-2.2.109-.168.225-.329.336-.5q.58-.874,1.2-1.706c.167-.226.337-.447.508-.668q.594-.766,1.219-1.489c.154-.18.306-.365.463-.541.569-.636,1.153-1.251,1.756-1.837.092-.089.188-.17.281-.259q.78-.742,1.6-1.427c.2-.168.4-.332.608-.5q.707-.566,1.439-1.091c.2-.145.4-.294.609-.435.682-.466,1.373-.915,2.085-1.329l-5.836,3.392-17.037,9.9c-.731.424-1.458.846-2.192,1.274l-17.638,10.253-13.212,7.68-2.473,1.438L347.24,532.092l-2.192,1.274-17.037,9.9-5.836,3.393c-.713.414-1.4.862-2.086,1.33-.206.14-.406.289-.609.434q-.731.525-1.436,1.09c-.206.164-.411.328-.612.5q-.818.686-1.6,1.428c-.091.087-.186.167-.277.256-.6.586-1.188,1.2-1.757,1.838-.157.176-.309.362-.464.541q-.624.725-1.219,1.49-.256.329-.507.666-.617.83-1.2,1.708c-.111.167-.227.326-.335.494-.034.054-.072.1-.106.157-.416.653-.811,1.332-1.2,2.021-.059.105-.124.2-.182.308q-.675,1.223-1.291,2.517c-.015.031-.026.066-.041.1-.544,1.153-1.045,2.357-1.516,3.6-.045.117-.1.224-.144.342-.1.278-.185.578-.285.859-.259.733-.509,1.476-.743,2.237-.066.218-.146.419-.212.638-.078.268-.139.555-.215.825q-.268.96-.507,1.946c-.069.287-.154.558-.221.848-.06.265-.105.545-.163.812-.121.566-.235,1.138-.344,1.716-.061.323-.135.631-.191.957-.053.3-.09.625-.139.933q-.125.772-.233,1.557c-.042.3-.1.593-.134.9-.049.387-.079.791-.122,1.183-.056.505-.111,1.011-.157,1.524-.023.244-.055.478-.075.724-.045.547-.069,1.113-.1,1.671-.026.419-.058.833-.078,1.258-.006.14-.019.275-.025.416q-.069,1.636-.08,3.322h0l-.094,33.3,101.092-58.764.094-33.3c.008-1.269.048-2.511.106-3.737C402.787,528.87,402.819,528.453,402.845,528.032Z"/><path class="c" d="M441.382,705.9,301.474,625.1l101.092-58.765,139.908,80.8Z"/></g></svg>