<svg id="미굴진_블록" data-name="미굴진 블록" xmlns="http://www.w3.org/2000/svg" xmlns:xlink="http://www.w3.org/1999/xlink" width="156" height="162" viewBox="0 0 156 162">
  <defs>
    <clipPath id="clip-path">
      <rect id="사각형_479" data-name="사각형 479" width="156" height="162" fill="none"/>
    </clipPath>
  </defs>
  <g id="그룹_1445" data-name="그룹 1445">
    <g id="그룹_1444" data-name="그룹 1444" clip-path="url(#clip-path)">
      <path id="패스_5816" data-name="패스 5816" d="M15.289,32.139c-.085.048-.174.086-.258.135.059-.029.151-.077.258-.135" fill="#2a8929"/>
      <path id="패스_5817" data-name="패스 5817" d="M155.971,96.812c-2.154-35.587-22.778-70.7-53.279-89.515C93.14,1.829,81.588-1.949,70.63,1.07,69.472.052,19.965,29.62,15.289,32.139c10.153-5.726,22.738-3.572,32.834,1.263,1.691.794,3.333,1.65,4.971,2.583C88.262,54.554,130.318,131.862,90.873,162c2.236-1.5,55.258-31.239,54.607-32.5,8.559-8.434,10.811-21.116,10.491-32.684" fill="#2a8929"/>
      <path id="패스_5818" data-name="패스 5818" d="M53.094,35.986C89.655,56.407,129.672,130.3,90.873,162L14.716,118.236C-10.719,82.229-6.365,4.13,53.094,35.986" fill="#165417"/>
    </g>
  </g>
</svg>
